<svg width="140" height="93" viewBox="16 0 135 93" fill="none" xmlns="http://www.w3.org/2000/svg">
<path d="M18.5798 66.7343L49.8334 29.8292C55.704 22.897 68.0927 17.4507 76.6407 18.0443C84.2119 18.57 86.0331 23.6892 80.8334 29.8292L77.9341 33.2528C73.2383 38.7977 72.7644 43.9236 76.6903 46.7079L78.6265 48.0811C83.751 51.7154 83.1325 58.4063 77.003 65.6442L76.0798 66.7343C65.8184 78.8513 44.6281 88.674 28.7499 88.674C12.8718 88.674 8.31844 78.8513 18.5798 66.7343Z" fill="#BEBEEE"/>
<path d="M79.5798 66.7343L110.833 29.8292C116.704 22.897 129.093 17.4507 137.641 18.0443C145.212 18.57 147.033 23.6892 141.833 29.8292L138.934 33.2528C134.238 38.7977 133.764 43.9236 137.69 46.7079L139.627 48.0811C144.751 51.7154 144.132 58.4063 138.003 65.6442L137.08 66.7343C126.818 78.8513 105.628 88.674 89.7499 88.674C73.8718 88.674 69.3184 78.8513 79.5798 66.7343Z" fill="#BEBEEE"/>
<path d="M19.0789 63.8619V15.5011C19.0789 6.41706 26.8553 -0.719754 35.906 0.0580581C43.9224 0.746984 50.0789 7.45516 50.0789 15.5011V19.9874C50.0789 27.2535 53.9459 33.9706 60.2297 37.6191L63.3289 39.4186C71.5311 44.1811 76.5789 52.9489 76.5789 62.4335V63.8619C76.5789 79.7401 63.707 92.6119 47.8289 92.6119C31.9507 92.6119 19.0789 79.7401 19.0789 63.8619Z" fill="#282A2E"/>
<path d="M80.0789 63.8619V15.5011C80.0789 6.41706 87.8553 -0.719754 96.906 0.0580581C104.922 0.746984 111.079 7.45516 111.079 15.5011V19.9874C111.079 27.2535 114.946 33.9706 121.23 37.6191L124.329 39.4186C132.531 44.1811 137.579 52.9489 137.579 62.4335V63.8619C137.579 79.7401 124.707 92.6119 108.829 92.6119C92.9507 92.6119 80.0789 79.7401 80.0789 63.8619Z" fill="#282A2E"/>
</svg>
